<svg xmlns="http://www.w3.org/2000/svg" width="33.947" height="15.861" viewBox="0 0 33.947 15.861">
  <path id="パス_1" data-name="パス 1" d="M8.379-3.516Q7.93-2.373,7.236-.508a28.9,28.9,0,0,1-1.3,3.145A3.054,3.054,0,0,1,4.814,3.779a3.141,3.141,0,0,1-1.572.381H1.8v-1.5H2.861A1.656,1.656,0,0,0,4.1,2.2,7.883,7.883,0,0,0,5.244-.176L1.016-10.937h1.9L6.162-2.383l3.193-8.555h1.9Zm9.678-6.162a2.323,2.323,0,0,0-2.07,1.064,5.761,5.761,0,0,0-.7,3.154,5.765,5.765,0,0,0,.7,3.149,2.32,2.32,0,0,0,2.07,1.069,2.329,2.329,0,0,0,2.08-1.069,5.765,5.765,0,0,0,.7-3.149,5.761,5.761,0,0,0-.7-3.154A2.332,2.332,0,0,0,18.057-9.678Zm0-1.523a4.238,4.238,0,0,1,3.481,1.475,6.594,6.594,0,0,1,1.206,4.268,6.61,6.61,0,0,1-1.2,4.272A4.242,4.242,0,0,1,18.057.283a4.23,4.23,0,0,1-3.477-1.47,6.61,6.61,0,0,1-1.2-4.272,6.613,6.613,0,0,1,1.2-4.268A4.224,4.224,0,0,1,18.057-11.2Zm7.93,7.061v-6.777h1.8v6.777a3.615,3.615,0,0,0,.522,2.168,1.893,1.893,0,0,0,1.616.693,2.286,2.286,0,0,0,1.943-.894,4.2,4.2,0,0,0,.674-2.563v-6.182h1.807V0H32.539V-1.641a3.4,3.4,0,0,1-1.3,1.436,3.717,3.717,0,0,1-1.929.488,2.918,2.918,0,0,1-2.5-1.1A5.542,5.542,0,0,1,25.986-4.141Z" transform="translate(-0.649 11.451)" fill="none" stroke="#707070" stroke-width="0.5" opacity="0.998"/>
</svg>
